<?xml version="1.0" encoding="UTF-8"?>
<svg width="20px" height="20px" viewBox="0 0 20 20" version="1.1" xmlns="http://www.w3.org/2000/svg" xmlns:xlink="http://www.w3.org/1999/xlink">
    <!-- Generator: Sketch 59.1 (86144) - https://sketch.com -->
    <title>Group 5</title>
    <desc>Created with Sketch.</desc>
    <g id="Page-1" stroke="none" stroke-width="1" fill="none" fill-rule="evenodd">
        <g id="Service-Silo" transform="translate(-1207.000000, -633.000000)">
            <g id="Breadstrip" transform="translate(115.000000, 632.000000)">
                <g id="Shares" transform="translate(994.000000, 0.000000)">
                    <g id="Group-5" transform="translate(98.000000, 1.000000)">
                        <rect id="Rectangle-Copy-4" fill="#1DA1F2" x="0" y="0" width="20" height="20"></rect>
                        <path d="M16.34375,6.75 C16.3645834,6.83333375 16.375,6.96874906 16.375,7.15625 C16.375,8.26042219 16.1666687,9.35936953 15.75,10.453125 C15.3333313,11.5468805 14.7447955,12.5468705 13.984375,13.453125 C13.2239545,14.3593795 12.2395894,15.0937472 11.03125,15.65625 C9.82291063,16.2187528 8.48959063,16.5 7.03125,16.5 C5.1979075,16.5 3.52084094,16.0104216 2,15.03125 C2.22916781,15.0520834 2.48958187,15.0625 2.78125,15.0625 C4.30209094,15.0625 5.66666063,14.5937547 6.875,13.65625 C6.14582969,13.65625 5.50521109,13.4427105 4.953125,13.015625 C4.40103891,12.5885395 4.02083437,12.0520866 3.8125,11.40625 C4.02083437,11.4270834 4.21874906,11.4375 4.40625,11.4375 C4.69791813,11.4375 4.98958187,11.4062503 5.28125,11.34375 C4.7812475,11.2395828 4.33333531,11.0312516 3.9375,10.71875 C3.54166469,10.4062484 3.22916781,10.0260439 3,9.578125 C2.77083219,9.13020609 2.65625,8.64583594 2.65625,8.125 L2.65625,8.0625 C3.11458563,8.33333469 3.60416406,8.47916656 4.125,8.5 C3.14582844,7.83333 2.65625,6.9166725 2.65625,5.75 C2.65625,5.16666375 2.81249844,4.61458594 3.125,4.09375 C3.93750406,5.11458844 4.93228578,5.92708031 6.109375,6.53125 C7.28646422,7.13541969 8.54166,7.46874969 9.875,7.53125 C9.83333312,7.28124875 9.8125,7.03125125 9.8125,6.78125 C9.8125,5.88541219 10.1302052,5.11458656 10.765625,4.46875 C11.4010448,3.82291344 12.1666622,3.5 13.0625,3.5 C14.0208381,3.5 14.8229134,3.84374656 15.46875,4.53125 C16.2187538,4.38541594 16.9166634,4.12500187 17.5625,3.75 C17.3124988,4.52083719 16.8333369,5.12499781 16.125,5.5625 C16.7500031,5.47916625 17.3749969,5.30208469 18,5.03125 C17.5416644,5.69792 16.9895866,6.27083094 16.34375,6.75 Z" id="" fill="#FFFFFF" fill-rule="nonzero"></path>
                    </g>
                </g>
            </g>
        </g>
    </g>
</svg>